<svg width="107" height="94" viewBox="0 0 107 94" fill="none" xmlns="http://www.w3.org/2000/svg">
<path opacity="0.5" d="M100.369 29.2715C99.498 20.7612 94.8799 12.7815 88.8676 6.65846C86.4279 4.16064 83.6396 1.86175 80.3721 0.712307C77.1046 -0.437136 73.2053 -0.282403 70.417 1.81754C68.3476 3.38697 67.0841 5.81848 65.2107 7.63107C61.3333 11.3889 55.3864 11.9636 50.093 11.0794C44.7996 10.1952 39.7894 8.09527 34.496 7.21108C29.2026 6.32689 23.2557 6.92372 19.4 10.7036C14.8908 15.1024 14.6294 22.3086 15.7186 28.5421C16.0889 30.6641 16.5682 32.8746 15.8929 34.9082C14.8691 37.9808 11.6669 39.5502 9.07464 41.4291C2.62672 46.1153 -0.923995 54.6035 0.208748 62.5833C1.45041 71.3588 9.64101 73.8567 17.4177 77.9018C25.1944 81.947 32.0562 84.9532 41.3796 86.8542C45.0392 87.6058 48.6117 87.8268 52.2931 87.2742C62.9888 85.7048 73.0528 80.9302 81.9187 74.6524C86.8636 71.1378 91.547 67.1147 95.076 62.1633C101.72 52.813 103.375 40.346 100.369 29.2715Z" fill="#FF9900"/>
<path opacity="0.5" d="M49.0782 19.7172C53.2462 15.6453 58.8557 13.4852 64.2651 12.9046C66.466 12.6621 68.7347 12.6757 70.7075 13.4997C72.6804 14.3236 74.3571 16.1054 74.673 18.4201C74.9026 20.1437 74.3888 21.9668 74.4227 23.7321C74.4901 27.3892 76.897 30.2838 79.6589 32.1301C82.4208 33.9765 85.5957 35.0633 88.3577 36.9097C91.1196 38.756 93.5167 41.6622 93.5646 45.3213C93.6302 49.5892 90.5483 53.4729 87.2935 56.2587C86.1857 57.2073 84.9899 58.1546 84.3894 59.513C83.4837 61.5669 84.2204 63.7846 84.5467 65.8982C85.3526 71.1621 83.1738 77.1512 79.1244 80.8315C74.6729 84.8806 69.8978 82.6147 64.621 81.3387C59.3443 80.0627 54.9382 78.6423 49.921 75.5701C47.9492 74.367 46.252 72.9244 44.8494 71.0295C40.7585 65.5433 38.3732 58.6558 37.1915 51.5047C36.5383 47.5092 36.2278 43.3618 36.8462 39.2324C38.0231 31.4431 42.8164 24.1992 49.0782 19.7172Z" fill="#FFAD3B"/>
<ellipse cx="50.0255" cy="82.2972" rx="46.1503" ry="11.7028" fill="#794522"/>
<path d="M30.2358 25.8865C30.2358 23.9535 31.8028 22.3865 33.7358 22.3865H66.535C68.468 22.3865 70.035 23.9535 70.035 25.8865V85.9649H30.2358V25.8865Z" fill="white" stroke="#432A03" stroke-width="3"/>
<rect x="37.5693" y="30.115" width="8.94766" height="7.41344" rx="3" stroke="#432A03" stroke-width="4"/>
<rect x="37.5815" y="44.6587" width="8.94766" height="7.41344" rx="3" stroke="#432A03" stroke-width="4"/>
<rect x="37.5815" y="59.3816" width="8.94766" height="7.41344" rx="3" stroke="#432A03" stroke-width="4"/>
<rect x="53.7869" y="30.3132" width="8.94766" height="7.41344" rx="3" stroke="#432A03" stroke-width="4"/>
<rect x="53.7991" y="44.8569" width="8.94766" height="7.41344" rx="3" stroke="#432A03" stroke-width="4"/>
<rect x="53.7991" y="59.5798" width="8.94766" height="7.41344" rx="3" stroke="#432A03" stroke-width="4"/>
<path d="M51.8778 46.5261C51.8778 44.5931 53.4448 43.0261 55.3778 43.0261H74.2658C76.1987 43.0261 77.7658 44.5931 77.7658 46.5261V86.0824H51.8778V46.5261Z" fill="white" stroke="#432A03" stroke-width="3"/>
<rect x="56.964" y="48.5003" width="4.79154" height="3.94768" rx="1.97384" stroke="#432A03" stroke-width="3.94768"/>
<rect x="56.9722" y="58.5611" width="4.79154" height="3.94768" rx="1.97384" stroke="#432A03" stroke-width="3.94768"/>
<rect x="56.9722" y="68.7458" width="4.79154" height="3.94768" rx="1.97384" stroke="#432A03" stroke-width="3.94768"/>
<rect x="67.9103" y="48.6375" width="4.79154" height="3.94768" rx="1.97384" stroke="#432A03" stroke-width="3.94768"/>
<rect x="67.9186" y="58.6983" width="4.79154" height="3.94768" rx="1.97384" stroke="#432A03" stroke-width="3.94768"/>
<rect x="67.9186" y="68.883" width="4.79154" height="3.94768" rx="1.97384" stroke="#432A03" stroke-width="3.94768"/>
</svg>
