<svg width="126" height="97" viewBox="0 0 126 97" fill="none" xmlns="http://www.w3.org/2000/svg">
<path opacity="0.5" d="M118.192 30.2057C117.166 21.4238 111.728 13.1894 104.648 6.87097C101.775 4.29342 98.4915 1.92117 94.6438 0.73504C90.796 -0.451087 86.2044 -0.291416 82.921 1.87555C80.4841 3.49507 78.9963 6.00418 76.7902 7.87461C72.2242 11.7523 65.2214 12.3454 58.988 11.433C52.7547 10.5206 46.8548 8.35363 40.6215 7.44122C34.3881 6.52881 27.3852 7.14469 22.8449 11.0452C17.535 15.5844 17.2272 23.0205 18.5098 29.453C18.9458 31.6428 19.5102 33.9238 18.715 36.0223C17.5093 39.1929 13.7386 40.8124 10.686 42.7513C3.09314 47.5871 -1.08807 56.3462 0.245815 64.5806C1.70796 73.6362 11.353 76.2138 20.5106 80.388C29.6682 84.5623 37.7485 87.6645 48.7274 89.6261C53.0368 90.4017 57.2437 90.6298 61.5788 90.0595C74.1738 88.44 86.0248 83.513 96.465 77.035C102.288 73.4081 107.803 69.2567 111.959 64.1472C119.782 54.4985 121.732 41.6336 118.192 30.2057Z" fill="#FF9900"/>
<path opacity="0.5" d="M57.793 20.3463C62.7011 16.1446 69.3068 13.9156 75.6767 13.3164C78.2684 13.0662 80.9399 13.0802 83.2631 13.9305C85.5863 14.7807 87.5607 16.6193 87.9327 19.0079C88.2031 20.7866 87.598 22.6678 87.6379 24.4895C87.7174 28.2633 90.5516 31.2502 93.8039 33.1555C97.0563 35.0608 100.795 36.1823 104.047 38.0876C107.3 39.9928 110.122 42.9917 110.179 46.7676C110.256 51.1718 106.627 55.1794 102.794 58.0541C101.49 59.033 100.082 60.0105 99.3745 61.4123C98.308 63.5317 99.1754 65.8202 99.5596 68.0012C100.509 73.4331 97.943 79.6134 93.1745 83.4112C87.9326 87.5895 82.3095 85.2512 76.0958 83.9345C69.882 82.6178 64.6936 81.1521 58.7855 77.9819C56.4636 76.7403 54.465 75.2517 52.8133 73.2964C47.996 67.635 45.1872 60.5277 43.7956 53.1484C43.0264 49.0254 42.6608 44.7457 43.389 40.4844C44.7748 32.4465 50.4193 24.9714 57.793 20.3463Z" fill="#FFAD3B"/>
<ellipse cx="58.9086" cy="84.9237" rx="54.3452" ry="12.0763" fill="#794522"/>
<path d="M35.3384 31.553C35.3384 26.8586 39.144 23.053 43.8384 23.053H74.2375C78.9319 23.053 82.7375 26.8586 82.7375 31.553V88.7562H35.3384V31.553Z" fill="white" stroke="#432A03" stroke-width="3"/>
<rect x="43.8854" y="31.0122" width="11.2468" height="7.7777" rx="3" stroke="#432A03" stroke-width="4"/>
<rect x="43.8997" y="46.0201" width="11.2468" height="7.7777" rx="3" stroke="#432A03" stroke-width="4"/>
<rect x="43.8997" y="61.2129" width="11.2468" height="7.7777" rx="3" stroke="#432A03" stroke-width="4"/>
<rect x="62.9828" y="31.2169" width="11.2468" height="7.7777" rx="3" stroke="#432A03" stroke-width="4"/>
<rect x="62.9971" y="46.2247" width="11.2468" height="7.7777" rx="3" stroke="#432A03" stroke-width="4"/>
<rect x="62.9971" y="61.4176" width="11.2468" height="7.7777" rx="3" stroke="#432A03" stroke-width="4"/>
</svg>
