<svg width="141" height="121" viewBox="0 0 141 121" fill="none" xmlns="http://www.w3.org/2000/svg">
<path opacity="0.5" d="M54.3463 31.4805C60.3226 26.0476 68.3225 23.1181 76.0171 22.2761C79.148 21.9253 82.3717 21.9116 85.1644 22.9716C87.9572 24.0316 90.3165 26.36 90.7351 29.4109C91.0387 31.6829 90.2846 34.0964 90.3096 36.4261C90.3575 41.2524 93.7398 45.0395 97.6405 47.438C101.541 49.8366 106.039 51.2268 109.939 53.6253C113.84 56.0239 117.208 59.8264 117.228 64.6556C117.265 70.2882 112.835 75.4576 108.173 79.1802C106.586 80.4478 104.875 81.7149 104.004 83.5163C102.69 86.24 103.707 89.157 104.143 91.9423C105.219 98.8792 102.045 106.815 96.2419 111.729C89.863 117.136 83.1069 114.212 75.6251 112.602C68.1432 110.991 61.9006 109.178 54.8111 105.193C52.0249 103.632 49.6319 101.752 47.6636 99.27C41.9222 92.0854 38.6229 83.0276 37.0374 73.6049C36.1616 68.3402 35.7748 62.8701 36.7078 57.4107C38.4823 47.1127 45.389 37.4841 54.3463 31.4805Z" fill="#FFAD3B"/>
<path opacity="0.5" d="M120.403 58.2835C119.36 49.924 113.833 42.0856 106.638 36.0711C103.718 33.6176 100.381 31.3594 96.4708 30.2303C92.5603 29.1012 87.8937 29.2532 84.5568 31.316C82.0801 32.8576 80.5681 35.246 78.326 37.0265C73.6856 40.7177 66.5685 41.2822 60.2334 40.4137C53.8984 39.5452 47.9023 37.4825 41.5673 36.6139C35.2323 35.7454 28.1152 36.3317 23.5008 40.0446C18.1043 44.3655 17.7914 51.4439 19.0949 57.567C19.5381 59.6515 20.1117 61.8228 19.3035 63.8204C18.0782 66.8385 14.2459 68.3801 11.1436 70.2257C3.42683 74.8288 -0.822583 83.1666 0.533059 91.005C2.01905 99.6251 11.8214 102.079 21.1284 106.052C30.4354 110.026 38.6475 112.979 49.8054 114.846C54.1852 115.584 58.4607 115.801 62.8665 115.258C75.6669 113.717 87.7112 109.027 98.3217 102.86C104.24 99.408 109.845 95.4562 114.068 90.5925C122.019 81.4079 124.001 69.1618 120.403 58.2835Z" fill="#FF9900"/>
<ellipse cx="64.6553" cy="108.328" rx="50.1948" ry="11.8007" fill="#794522"/>
<path d="M78.1046 83.7428H113.165V106.855H78.1046V83.7428Z" fill="white" stroke="#4B2F04" stroke-width="3"/>
<path d="M97.8578 70.3674L79.3157 80.1392C78.3924 80.6258 78.7382 82.0239 79.7819 82.0239H111.616C112.582 82.0239 112.987 80.7903 112.208 80.2182L98.9163 70.4464C98.6077 70.2195 98.1966 70.1888 97.8578 70.3674Z" fill="white" stroke="#4B2F04" stroke-width="3"/>
<path d="M40.0444 69.1068H80.914V106.855H40.0444V69.1068Z" fill="white" stroke="#432A03" stroke-width="3"/>
<path d="M60.5127 50.0714L36.2389 65.5774C35.3966 66.1155 35.7777 67.4201 36.7772 67.4201H84.1349C85.1225 67.4201 85.5123 66.1407 84.6925 65.59L61.6086 50.0841C61.2784 49.8622 60.848 49.8572 60.5127 50.0714Z" fill="white" stroke="#432A03" stroke-width="3"/>
<rect x="56.3121" y="89.5847" width="10.9711" height="17.0096" rx="1" fill="white" stroke="#432A03" stroke-width="2"/>
<rect x="48.8439" y="77.0383" width="7.96233" height="5.994" stroke="#4B2F04" stroke-width="2"/>
<rect x="65.3199" y="77.0383" width="7.96233" height="5.994" stroke="#4B2F04" stroke-width="2"/>
<rect x="93.7962" y="97.3187" width="7.93353" height="9.52557" rx="1.25" fill="white" stroke="#4B2F04" stroke-width="1.5"/>
<rect x="86.328" y="88.5742" width="5.96821" height="4.58307" stroke="#4B2F04" stroke-width="1.5"/>
<rect x="101.658" y="88.5742" width="5.78019" height="4.59065" stroke="#4B2F04" stroke-width="1.5"/>
</svg>
