<svg width="131" height="56" viewBox="0 0 131 56" fill="none" xmlns="http://www.w3.org/2000/svg">
<path d="M8.80484 32.5188L6.46091 34.7675V40.3357H1.95331V20.847H6.46091V29.6812L8.44424 27.2585L14.0186 20.847H19.563L11.7949 29.5072L19.7883 40.3357H14.4243L8.80484 32.5188ZM30.6216 40.3357C30.4212 39.9875 30.276 39.5548 30.1858 39.0373C29.1341 40.0815 27.7668 40.6035 26.0839 40.6035C24.4913 40.6035 23.169 40.1927 22.1173 39.3719C21.0755 38.551 20.5546 37.5159 20.5546 36.2666C20.5546 34.7318 21.1907 33.5539 22.4628 32.7329C23.745 31.912 25.5931 31.4971 28.0072 31.4881H30.0055V30.6583C30.0055 29.989 29.8102 29.4536 29.4195 29.0521C29.0389 28.6505 28.4329 28.4497 27.6015 28.4497C26.8703 28.4497 26.2943 28.6059 25.8736 28.9182C25.4629 29.2306 25.2576 29.6589 25.2576 30.2032H20.9152C20.9152 29.3644 21.2057 28.588 21.7867 27.8742C22.3677 27.1603 23.1891 26.6026 24.2508 26.201C25.3126 25.7906 26.5047 25.5854 27.8269 25.5854C29.8303 25.5854 31.4179 26.036 32.5899 26.9372C33.7719 27.8296 34.3629 29.0878 34.3629 30.7118V36.9894C34.3729 38.3636 34.5882 39.4033 35.009 40.1081V40.3357H30.6216ZM27.0305 37.6453C27.6716 37.6453 28.2626 37.5204 28.8035 37.2705C29.3444 37.0117 29.7451 36.6682 30.0055 36.2398V33.7502H28.3828C26.2092 33.7502 25.0522 34.4195 24.912 35.758L24.8969 35.9855C24.8969 36.4674 25.0873 36.8645 25.4679 37.1768C25.8486 37.4891 26.3694 37.6453 27.0305 37.6453ZM41.7703 25.8531L41.9056 27.4726C43.0575 26.2144 44.6152 25.5854 46.5784 25.5854C48.6718 25.5854 50.1093 26.3215 50.8909 27.7939C52.0325 26.3215 53.6603 25.5854 55.7739 25.5854C57.5367 25.5854 58.8489 26.0449 59.7105 26.964C60.5721 27.8742 61.0029 29.2484 61.0029 31.0866V40.3357H56.6452V31.1C56.6452 30.2791 56.465 29.6812 56.1045 29.3064C55.744 28.9227 55.1079 28.7308 54.1962 28.7308C52.8941 28.7308 51.9925 29.2841 51.4918 30.3906L51.5067 40.3357H47.1644V31.1134C47.1644 30.2746 46.9789 29.6678 46.6083 29.293C46.2377 28.9182 45.6069 28.7308 44.7154 28.7308C43.4832 28.7308 42.5917 29.1859 42.0408 30.0961V40.3357H37.6985V25.8531H41.7703ZM73.7741 40.3357C73.5741 39.9875 73.4286 39.5548 73.3385 39.0373C72.2865 40.0815 70.9194 40.6035 69.2366 40.6035C67.6439 40.6035 66.3216 40.1927 65.2701 39.3719C64.2283 38.551 63.7073 37.5159 63.7073 36.2666C63.7073 34.7318 64.3434 33.5539 65.6156 32.7329C66.8975 31.912 68.7456 31.4971 71.1598 31.4881H73.1582V30.6583C73.1582 29.989 72.9631 29.4536 72.5723 29.0521C72.1916 28.6505 71.5854 28.4497 70.7541 28.4497C70.023 28.4497 69.4472 28.6059 69.026 28.9182C68.6154 29.2306 68.4101 29.6589 68.4101 30.2032H64.0678C64.0678 29.3644 64.3584 28.588 64.9395 27.8742C65.5202 27.1603 66.3418 26.6026 67.4035 26.201C68.4651 25.7906 69.6573 25.5854 70.9796 25.5854C72.9828 25.5854 74.5707 26.036 75.7426 26.9372C76.9247 27.8296 77.5155 29.0878 77.5155 30.7118V36.9894C77.5256 38.3636 77.741 39.4033 78.1617 40.1081V40.3357H73.7741ZM70.183 37.6453C70.8244 37.6453 71.4152 37.5204 71.9564 37.2705C72.4971 37.0117 72.8976 36.6682 73.1582 36.2398V33.7502H71.5352C69.3619 33.7502 68.2048 34.4195 68.0646 35.758L68.0497 35.9855C68.0497 36.4674 68.24 36.8645 68.6207 37.1768C69.0014 37.4891 69.5219 37.6453 70.183 37.6453ZM89.9865 29.4804C89.3956 29.409 88.8747 29.3733 88.4237 29.3733C86.7809 29.3733 85.7043 29.8686 85.1935 30.8591V40.3357H80.8512V25.8531H84.9531L85.0731 27.5797C85.9448 26.2501 87.1519 25.5854 88.6945 25.5854C89.175 25.5854 89.626 25.6433 90.0467 25.7593L89.9865 29.4804Z" fill="#F29913"/>
<path d="M97.995 34.5266L96.4323 35.9186V40.3357H92.0899V19.7762H96.4323V31.1669L97.2736 30.2032L101.436 25.8531H106.649L100.775 31.8897L107.161 40.3357H102.172L97.995 34.5266ZM118.264 38.8633C117.192 40.0232 115.71 40.6035 113.817 40.6035C112.074 40.6035 110.742 40.1571 109.82 39.265C108.908 38.3725 108.442 37.0653 108.423 35.3431V25.8531H112.765V35.2092C112.765 36.7173 113.536 37.4713 115.079 37.4713C116.551 37.4713 117.563 37.0162 118.114 36.106V25.8531H122.471V40.3357H118.384L118.264 38.8633Z" fill="#422104"/>
<path d="M89.6779 15.1416L108.661 0L111.918 2.76445L92.934 17.906L89.6779 15.1416Z" fill="#422104"/>
<path d="M127.044 15.7346L108.702 0.0663757L105.333 2.73733L123.674 18.4056L127.044 15.7346Z" fill="#422104"/>
<path d="M108.642 20.2313C110.861 20.2313 112.66 18.5076 112.66 16.3814C112.66 14.2552 110.861 12.5315 108.642 12.5315C106.423 12.5315 104.624 14.2552 104.624 16.3814C104.624 18.5076 106.423 20.2313 108.642 20.2313Z" fill="#F29913"/>
</svg>
